<svg xmlns="http://www.w3.org/2000/svg" viewBox="0 0 100 100" width="100" height="100">
  <defs>
    <linearGradient id="gradient" x1="0%" y1="0%" x2="100%" y2="100%">
      <stop offset="0%" stop-color="#3b82f6" />
      <stop offset="100%" stop-color="#10b981" />
    </linearGradient>
  </defs>
  <path fill="url(#gradient)" d="M 68 38 C 68 25.8 58.2 16 46 16 C 36.3 16 28 22.3 25 31 C 15 32 7 40.5 7 51 C 7 62.6 16.4 72 28 72 L 68 72 C 78.5 72 87 63.5 87 53 C 87 43.4 79.8 35.5 70.3 34.2 C 69.8 34.1 69 34.1 68 38 Z" />
  <path d="M 22 56 L 78 56 C 81.3 56 84 53.3 84 50 C 84 46.7 81.3 44 78 44" fill="none" stroke="#ffffff" stroke-width="6" stroke-linecap="round" />
  <path d="M 14 44 L 38 44" fill="none" stroke="#ffffff" stroke-width="6" stroke-linecap="round" />
</svg>